<svg width="160" height="32" viewBox="0 0 160 32" fill="none" xmlns="http://www.w3.org/2000/svg">
<path d="M32.7855 4.80528C39.082 4.80528 44.2044 9.95612 44.2044 16.2874C44.2044 20.9121 41.4673 25.0646 37.231 26.8663C36.045 27.3708 34.6765 26.8129 34.1748 25.6201C33.6729 24.4274 34.2279 23.0514 35.4141 22.5469C37.9207 21.4807 39.5403 19.0238 39.5403 16.2874C39.5403 12.5423 36.5101 9.49528 32.7855 9.49528C32.493 9.49528 32.1863 9.5168 31.8739 9.55896L30.4733 9.74852L29.658 8.58776C27.9435 6.14712 25.149 4.68988 22.1828 4.68988C18.3971 4.68988 15.0555 6.97836 13.6697 10.52L12.9973 12.2382L11.1784 11.9839C10.9157 11.9471 10.6558 11.9281 10.4061 11.9281C7.34879 11.9281 4.86139 14.4287 4.86139 17.503C4.86139 20.5772 7.34879 23.0772 10.4061 23.0772H11.0795C10.637 22.5172 10.6777 21.6743 11.2023 21.1466C11.7716 20.5743 12.6944 20.5756 13.2636 21.148L16.4401 24.3422C17.0094 24.9146 17.0094 25.8427 16.4401 26.415L13.2636 29.6095C12.9791 29.8957 12.6061 30.0393 12.233 30.0393C11.86 30.0393 11.4869 29.8976 11.2023 29.6113C10.7054 29.1115 10.6424 28.3345 11.0134 27.7746H10.4061C4.77689 27.7746 0.197266 23.1671 0.197266 17.5066C0.197266 11.9655 4.5862 7.43324 10.0521 7.24484C11.0785 5.34784 12.5316 3.71728 14.3196 2.46992C16.6358 0.8541 19.3549 0 22.1828 0C26.2068 0 30.0207 1.7748 32.6303 4.80644C32.6822 4.80568 32.7339 4.80528 32.7855 4.80528ZM115.034 3.7964C115.034 2.53525 116.079 1.51953 117.334 1.51953C118.588 1.51953 119.633 2.53525 119.633 3.7964C119.633 5.09292 118.588 6.10864 117.334 6.10864C116.079 6.10864 115.034 5.09292 115.034 3.7964ZM52.0456 10.1375C53.3694 8.456 56.4703 7.7554 58.5956 7.7554C62.3238 7.7554 65.6333 9.3318 65.6333 13.8862V23.4506C65.6333 24.4663 64.797 25.3074 63.7869 25.3074H63.5779C63.09 25.3074 61.9055 24.8866 61.9055 23.5905V23.2752C60.686 24.7117 58.7003 25.5174 56.5053 25.5174C53.7527 25.5174 50.6171 23.6606 50.6171 19.9122C50.6171 16.0232 53.7527 14.4118 56.5053 14.4118C58.7349 14.4118 60.7206 15.1474 61.9055 16.5838V13.9914C61.9055 12.0645 60.3027 10.8735 58.003 10.8735C56.5403 10.8735 55.2161 11.2588 53.9966 12.1697C53.7877 12.3098 53.5091 12.4148 53.2301 12.4148C52.5336 12.4148 51.7666 11.8545 51.7666 10.9436C51.7666 10.663 51.8713 10.3479 52.0456 10.1375ZM57.9338 22.9249C59.5361 22.9249 61.0693 22.3643 61.9055 21.2084V18.6858C61.0693 17.5649 59.5361 17.0042 57.9338 17.0042C55.9477 17.0042 54.4149 18.1254 54.4149 19.982C54.4149 21.7687 55.9477 22.9249 57.9338 22.9249ZM72.356 10.6631C73.2619 9.43708 74.5857 7.96552 76.3624 7.96552C77.373 7.96552 78.0002 8.6664 78.0002 9.57728C78.0002 10.6981 77.2337 11.399 76.1885 11.539C74.6904 11.6791 73.2619 12.3099 72.356 13.6062V23.4505C72.356 24.4664 71.5198 25.3074 70.5093 25.3074H70.44C69.4295 25.3074 68.6283 24.4664 68.6283 23.4505V9.78732C68.6283 8.80632 69.4295 7.96552 70.5443 7.96552C71.5198 7.96552 72.356 8.80632 72.356 9.78732V10.6631ZM92.6331 7.96552C93.6436 7.96552 94.4448 8.80624 94.4448 9.82232V29.8964C94.4448 30.9126 93.6436 31.7534 92.5634 31.7534C91.5533 31.7534 90.7166 30.9126 90.7166 29.8964V22.7847C89.3578 24.5714 87.4418 25.5174 85.3515 25.5174C80.9964 25.5174 77.8605 22.1891 77.8605 16.619C77.8605 11.0484 80.9964 7.75548 85.3515 7.75548C87.5115 7.75548 89.4625 8.7712 90.7166 10.453V9.82232C90.7166 8.80624 91.5533 7.96552 92.6331 7.96552ZM90.7166 19.947V13.3256C89.9154 12.0996 88.1387 11.0835 86.4317 11.0835C83.6094 11.0835 81.763 13.3957 81.763 16.619C81.763 19.8771 83.6094 22.1891 86.4317 22.1891C88.1387 22.1891 89.9154 21.1383 90.7166 19.947ZM108.798 9.78732C108.798 8.80632 109.599 7.96552 110.714 7.96552C111.69 7.96552 112.526 8.80632 112.526 9.78732V23.4505C112.526 24.4664 111.69 25.3074 110.645 25.3074C109.599 25.3074 108.798 24.4664 108.798 23.4505V22.8549C107.579 24.2212 105.488 25.5174 102.84 25.5174C99.2169 25.5174 97.4402 23.5906 97.4402 20.1573V9.78732C97.4402 8.80632 98.2414 7.96552 99.3562 7.96552C100.332 7.96552 101.168 8.80632 101.168 9.78732V18.7909C101.168 21.3834 102.492 22.1891 104.513 22.1891C106.359 22.1891 107.927 21.1383 108.798 20.017V9.78732ZM117.403 7.96552C118.379 7.96552 119.215 8.80632 119.215 9.78732V23.4505C119.215 24.4664 118.379 25.3074 117.334 25.3074C116.288 25.3074 115.487 24.4664 115.487 23.4505V9.78732C115.487 8.80632 116.288 7.96552 117.403 7.96552ZM134.753 8.00056C135.903 8.00056 136.669 8.87644 136.669 9.85736C136.669 10.0327 136.634 10.2778 136.53 10.4881L131.234 23.5554C130.781 24.6065 129.771 25.3074 128.621 25.3074H128.551C127.402 25.3074 126.356 24.6065 125.938 23.5554L120.643 10.4881C120.538 10.2778 120.503 10.0327 120.503 9.82236C120.503 8.91144 121.27 8.00056 122.385 8.00056C123.151 8.00056 123.813 8.421 124.092 9.12176L128.586 20.753L133.046 9.15688C133.325 8.421 134.021 8.00056 134.753 8.00056ZM136.948 16.6189C136.948 11.7142 140.502 7.75544 145.484 7.75544C149.421 7.75544 152.278 10.1375 153.323 13.781C153.532 14.4819 153.741 15.2876 153.741 16.0232C153.741 17.0042 152.94 17.845 151.929 17.845H140.85C141.094 20.3676 143.01 22.5046 146.146 22.5046C147.365 22.5046 148.759 22.1192 149.909 21.3834C150.152 21.2434 150.431 21.1733 150.675 21.1733C151.442 21.1733 152.243 21.8037 152.243 22.7146C152.243 24.6415 147.923 25.5174 145.762 25.5174C140.711 25.5174 136.948 21.979 136.948 16.6189ZM145.484 10.7683C142.418 10.7683 140.989 13.2205 140.815 15.2526H150.152C150.083 13.2906 148.759 10.7683 145.484 10.7683ZM157.572 7.96552C158.547 7.96552 159.384 8.80632 159.384 9.78732V23.4505C159.384 24.4664 158.548 25.3074 157.502 25.3074C156.457 25.3074 155.656 24.4664 155.656 23.4505V9.78732C155.656 8.80632 156.457 7.96552 157.572 7.96552ZM159.802 3.7964C159.802 5.09292 158.757 6.10864 157.502 6.10864C156.248 6.10864 155.203 5.09292 155.203 3.7964C155.203 2.53525 156.248 1.51953 157.502 1.51953C158.757 1.51953 159.802 2.53525 159.802 3.7964ZM18.8252 14.8878C18.8252 14.1269 19.4383 13.5105 20.1951 13.5105H27.0442C27.5167 13.5105 27.9485 13.7034 28.2565 14.0166L31.3661 17.1366C31.6573 17.4327 31.8386 17.8424 31.8386 18.3038V28.6619C31.8386 29.423 31.2256 30.0393 30.4688 30.0393H20.1951C19.4383 30.0393 18.8252 29.423 18.8252 28.6619V14.8878ZM25.6744 15.2322C25.2976 15.2322 24.9894 15.5421 24.9894 15.921V19.0201C24.9894 19.7811 25.6025 20.3975 26.3593 20.3975H29.4415C29.818 20.3975 30.1264 20.0876 30.1264 19.7088C30.1264 19.33 29.818 19.0201 29.4415 19.0201H26.8729C26.5888 19.0201 26.3593 18.7894 26.3593 18.5036V15.921C26.3593 15.5421 26.051 15.2322 25.6744 15.2322Z" fill="#2074BA"/>
</svg>
